<svg width="143" height="97" viewBox="0 0 143 97" fill="none" xmlns="http://www.w3.org/2000/svg">
<rect x="0.5" y="0.5" width="142" height="96" rx="3.5" stroke="white"/>
<path d="M30.8333 76.625H75.1667C78.6645 76.625 81.5 73.8268 81.5 70.375V26.625C81.5 23.1732 78.6645 20.375 75.1667 20.375H30.8333C27.3355 20.375 24.5 23.1732 24.5 26.625V70.375C24.5 73.8268 27.3355 76.625 30.8333 76.625ZM30.8333 76.625L65.6667 42.25L81.5 57.875M46.6667 37.5625C46.6667 40.1513 44.54 42.25 41.9167 42.25C39.2933 42.25 37.1667 40.1513 37.1667 37.5625C37.1667 34.9737 39.2933 32.875 41.9167 32.875C44.54 32.875 46.6667 34.9737 46.6667 37.5625Z" stroke="white" stroke-width="4" stroke-linecap="round" stroke-linejoin="round"/>
<line x1="114" y1="61" x2="114" y2="35" stroke="white" stroke-width="4"/>
<line x1="101" y1="47" x2="127" y2="47" stroke="white" stroke-width="4"/>
</svg>
