<svg width="16" height="16" viewBox="0 0 16 16" fill="none" xmlns="http://www.w3.org/2000/svg">
<path fill-rule="evenodd" clip-rule="evenodd" d="M11.8476 5.58713L14.6683 5.58713C14.6683 3.32233 13.3113 1.99927 11.012 1.99927L4.99126 1.99927C2.692 1.99927 1.33496 3.32233 1.33496 5.55825V10.4403C1.33496 12.6762 2.692 13.9993 4.99126 13.9993L11.012 13.9993C13.3113 13.9993 14.6683 12.6762 14.6683 10.4403V10.2323L11.8476 10.2323C10.5384 10.2323 9.47718 9.19761 9.47718 7.92127C9.47718 6.64493 10.5384 5.61025 11.8476 5.61025V5.58713ZM11.8463 6.5809L14.1693 6.5809C14.4442 6.5809 14.667 6.79819 14.667 7.06622V8.75327C14.6638 9.02 14.4428 9.23546 14.1693 9.23858L11.8996 9.23858C11.2369 9.24728 10.6574 8.80488 10.507 8.17551C10.4318 7.78482 10.5374 7.38167 10.7958 7.07411C11.0541 6.76654 11.4386 6.58601 11.8463 6.5809ZM11.95 8.35469H12.1693C12.4507 8.35469 12.6789 8.13224 12.6789 7.85782C12.6789 7.58341 12.4507 7.36095 12.1693 7.36095H11.95C11.8154 7.35941 11.6858 7.41047 11.59 7.50273C11.4943 7.595 11.4404 7.72079 11.4404 7.85204C11.4404 8.12741 11.6676 8.35153 11.95 8.35469ZM4.49447 5.58751L8.25744 5.58751C8.5389 5.58751 8.76707 5.36505 8.76707 5.09064C8.76707 4.81622 8.5389 4.59377 8.25744 4.59377L4.49447 4.59377C4.21531 4.59375 3.98809 4.81271 3.98484 5.08486C3.98482 5.36022 4.21206 5.58434 4.49447 5.58751Z" fill="#808191"/>
</svg>
