<svg width="16" height="16" viewBox="0 0 16 16" fill="none" xmlns="http://www.w3.org/2000/svg">
<path d="M7.48738 4.86067V2.188C7.48738 1.90381 7.71405 1.66699 8.00072 1.66699C8.25738 1.66699 8.47484 1.86599 8.5093 2.11805L8.51405 2.188V4.86067L11.7007 4.86088C13.2873 4.86088 14.5909 6.16018 14.6641 7.7806L14.6673 7.92439V11.2839C14.6673 12.9157 13.4091 14.2551 11.846 14.3303L11.7073 14.3337L4.29398 14.3337C2.70732 14.3337 1.41004 13.0409 1.33721 11.4145L1.33398 11.2702L1.33398 7.9175C1.33398 6.28573 2.58592 4.9398 4.14865 4.86422L4.28732 4.86088L7.48732 4.86088V9.12914L6.42065 8.02765C6.22065 7.82112 5.89398 7.82112 5.69398 8.02765C5.59398 8.13092 5.54732 8.2686 5.54732 8.40629C5.54732 8.51093 5.57718 8.61998 5.64033 8.71228L5.69398 8.77804L7.63398 10.7883C7.72732 10.8915 7.86065 10.9466 8.00065 10.9466C8.11176 10.9466 8.22287 10.9083 8.31084 10.8358L8.36065 10.7883L10.3007 8.77804C10.5007 8.57151 10.5007 8.23418 10.3007 8.02765C10.1188 7.8399 9.83233 7.82283 9.63148 7.97645L9.57398 8.02765L8.51398 9.12914V4.86088L7.48738 4.86067Z" fill="#808191"/>
</svg>
