<svg width="16" height="16" viewBox="0 0 16 16" fill="none" xmlns="http://www.w3.org/2000/svg">
<path d="M8.70508 4C8.99136 4.00947 9.59047 4.25868 9.60059 4.27148C10.5765 4.68095 12.4593 5.91676 13.3291 6.79785L13.582 7.0625C13.6481 7.13409 13.7224 7.21906 13.7686 7.28516C13.9227 7.48931 14 7.7425 14 7.99512C13.9999 8.27701 13.9136 8.53954 13.75 8.75391L13.4902 9.0332L13.4316 9.09375C12.6423 9.9493 10.5825 11.3483 9.50488 11.7764L9.3418 11.8389C9.14601 11.909 8.87133 11.9923 8.70508 12C8.4936 11.9999 8.29122 11.9504 8.09863 11.8535C7.85816 11.7177 7.66668 11.5034 7.56055 11.251C7.4936 11.078 7.38886 10.5618 7.38672 10.542C7.28938 10.0126 7.23272 9.17655 7.22461 8.24023L7.22363 8.00488C7.22363 7.02386 7.28065 6.12897 7.36719 5.5459L7.44336 5.18359C7.48552 4.99166 7.54085 4.77281 7.59863 4.66113C7.81027 4.25283 8.22409 4 8.66699 4H8.70508ZM5.46875 7.20605C5.90273 7.20629 6.25488 7.56174 6.25488 8C6.25473 8.43886 5.90263 8.79371 5.46875 8.79395L3.00195 9.01172C2.4487 9.0116 2.00016 8.55863 2 8C2 7.44123 2.4486 6.98742 3.00195 6.9873L5.46875 7.20605Z" fill="#808191"/>
</svg>
