<svg width="14" height="14" viewBox="0 0 14 14" fill="none" xmlns="http://www.w3.org/2000/svg">
<path d="M5.09409 12.8493V10.8108C5.09409 10.2905 5.51901 9.86861 6.04319 9.86861L7.95931 9.86861C8.21103 9.86861 8.45243 9.96788 8.63043 10.1446C8.80842 10.3213 8.90841 10.5609 8.90841 10.8108V12.8493C8.90682 13.0656 8.99228 13.2737 9.14581 13.4272C9.29935 13.5807 9.50827 13.6671 9.72619 13.6671H11.0335C11.644 13.6686 12.2301 13.429 12.6623 13.0009C13.0946 12.5729 13.3376 11.9917 13.3376 11.3856V5.57831C13.3376 5.08871 13.1189 4.6243 12.7406 4.31019L8.29358 0.78432C7.52001 0.166115 6.41164 0.186075 5.66116 0.831726L1.31557 4.31019C0.919392 4.61504 0.6826 5.08083 0.670898 5.57831V11.3797C0.670898 12.643 1.70249 13.6671 2.97501 13.6671H4.25243C4.70505 13.6671 5.0729 13.3046 5.07618 12.8552L5.09409 12.8493Z" fill="white"/>
</svg>
