<svg width="32" height="32" viewBox="0 0 32 32" fill="none" xmlns="http://www.w3.org/2000/svg">
<rect opacity="0.1" width="32" height="32" rx="12" fill="white"/>
<path d="M13.4982 20.5156V18.4771C13.4982 17.9567 13.9303 17.5349 14.4633 17.5349L16.4119 17.5349C16.6679 17.5349 16.9134 17.6341 17.0944 17.8108C17.2754 17.9875 17.3771 18.2272 17.3771 18.4771V20.5156C17.3755 20.7319 17.4624 20.9399 17.6186 21.0935C17.7747 21.247 17.9872 21.3333 18.2088 21.3333H19.5382C20.1591 21.3349 20.7551 21.0952 21.1947 20.6672C21.6343 20.2392 21.8814 19.658 21.8814 19.0519V13.2446C21.8813 12.755 21.659 12.2906 21.2743 11.9764L16.7519 8.45058C15.9652 7.83237 14.838 7.85233 14.0748 8.49799L9.6556 11.9764C9.25271 12.2813 9.0119 12.7471 9 13.2446V19.046C9 20.3092 10.0491 21.3333 11.3432 21.3333H12.6422C13.1025 21.3333 13.4766 20.9708 13.4799 20.5215L13.4982 20.5156Z" fill="#808191"/>
</svg>
