<svg width="76" height="75" viewBox="0 0 76 75" fill="none" xmlns="http://www.w3.org/2000/svg">
<path d="M15.8333 65.625H60.1667C63.6645 65.625 66.5 62.8268 66.5 59.375V15.625C66.5 12.1732 63.6645 9.375 60.1667 9.375H15.8333C12.3355 9.375 9.5 12.1732 9.5 15.625V59.375C9.5 62.8268 12.3355 65.625 15.8333 65.625ZM15.8333 65.625L50.6667 31.25L66.5 46.875M31.6667 26.5625C31.6667 29.1513 29.54 31.25 26.9167 31.25C24.2933 31.25 22.1667 29.1513 22.1667 26.5625C22.1667 23.9737 24.2933 21.875 26.9167 21.875C29.54 21.875 31.6667 23.9737 31.6667 26.5625Z" stroke="white" stroke-width="4" stroke-linecap="round" stroke-linejoin="round"/>
</svg>
