<svg width="1920" height="1080" viewBox="0 0 1920 1080" fill="none" xmlns="http://www.w3.org/2000/svg">
<g clip-path="url(#clip0_321_171)">
<rect width="1920" height="1080" fill="#1F1D2B"/>
<path d="M1080.46 209.563C892.909 228.723 765.34 77.8378 725 0L1920 5.23909V1080H1786.53C1373.26 1023.12 1442.83 796.341 1529.27 690.062C1579.76 615.468 1671.04 435.742 1632.31 313.597C1583.91 160.915 1314.89 185.613 1080.46 209.563Z" fill="#252331"/>
<path d="M857.465 884.913C1059.18 869.277 1240.41 1017.12 1283.7 1081.89L-1.39899 1075.67L-0.101816 182.134L143.431 182.343C587.793 230.278 404.227 389.715 371.071 452.272C316.691 514.21 329.738 642.68 371.238 744.29C423.112 871.303 605.324 904.459 857.465 884.913Z" fill="#252331"/>
</g>
<defs>
<clipPath id="clip0_321_171">
<rect width="1920" height="1080" fill="white"/>
</clipPath>
</defs>
</svg>
